<?xml version="1.0" encoding="UTF-8"?>
<!DOCTYPE svg PUBLIC "-//W3C//DTD SVG 1.1//EN" "http://www.w3.org/Graphics/SVG/1.1/DTD/svg11.dtd">
<svg version="1.1" xmlns="http://www.w3.org/2000/svg" xmlns:xlink="http://www.w3.org/1999/xlink" x="0" y="0" width="512" height="512" viewBox="0, 0, 512, 512">
  <g id="Background">
    <rect x="0" y="0" width="512" height="512" fill="#FFFFFF"/>
  </g>
  <g id="Layer_1">
    <g>
      <path d="M7.958,37.555 C22.446,38.412 36.905,39.884 51.233,42.216 C87.565,48.132 127.813,54.585 154.23,81.841 C195.128,124.036 168.774,180.521 116.232,192.039 L240.401,354.76 L7.724,193.308 L7.958,37.555 z" fill="#1B6AC0"/>
      <path d="M290.062,43.249 L176.978,206.842 C319.732,148.92 427.34,354.76 508.276,354.76 L290.062,43.249" fill="#1B6AC0"/>
    </g>
    <path d="M39.551,446.564 Q37.289,444.128 35.172,443.316 Q33.055,442.504 30.909,442.504 Q27.719,442.504 25.138,443.635 Q22.557,444.766 20.701,446.767 Q18.845,448.768 17.83,451.436 Q16.815,454.104 16.815,457.178 Q16.815,460.484 17.83,463.268 Q18.845,466.052 20.701,468.082 Q22.557,470.112 25.138,471.272 Q27.719,472.432 30.909,472.432 Q33.403,472.432 35.752,471.243 Q38.101,470.054 40.131,467.444 L46.163,471.736 Q43.379,475.564 39.377,477.304 Q35.375,479.044 30.851,479.044 Q26.095,479.044 22.122,477.507 Q18.149,475.97 15.278,473.157 Q12.407,470.344 10.783,466.4 Q9.159,462.456 9.159,457.642 Q9.159,452.712 10.783,448.681 Q12.407,444.65 15.278,441.808 Q18.149,438.966 22.122,437.429 Q26.095,435.892 30.851,435.892 Q35.027,435.892 38.594,437.371 Q42.161,438.85 45.235,442.388 z" fill="#1B6AC0"/>
    <path d="M49.063,464.08 Q49.063,460.774 50.252,458.077 Q51.441,455.38 53.471,453.466 Q55.501,451.552 58.285,450.508 Q61.069,449.464 64.201,449.464 Q67.333,449.464 70.117,450.508 Q72.901,451.552 74.931,453.466 Q76.961,455.38 78.15,458.077 Q79.339,460.774 79.339,464.08 Q79.339,467.386 78.15,470.083 Q76.961,472.78 74.931,474.694 Q72.901,476.608 70.117,477.652 Q67.333,478.696 64.201,478.696 Q61.069,478.696 58.285,477.652 Q55.501,476.608 53.471,474.694 Q51.441,472.78 50.252,470.083 Q49.063,467.386 49.063,464.08 z M56.023,464.08 Q56.023,465.704 56.574,467.212 Q57.125,468.72 58.198,469.88 Q59.271,471.04 60.779,471.736 Q62.287,472.432 64.201,472.432 Q66.115,472.432 67.623,471.736 Q69.131,471.04 70.204,469.88 Q71.277,468.72 71.828,467.212 Q72.379,465.704 72.379,464.08 Q72.379,462.456 71.828,460.948 Q71.277,459.44 70.204,458.28 Q69.131,457.12 67.623,456.424 Q66.115,455.728 64.201,455.728 Q62.287,455.728 60.779,456.424 Q59.271,457.12 58.198,458.28 Q57.125,459.44 56.574,460.948 Q56.023,462.456 56.023,464.08 z" fill="#1B6AC0"/>
    <path d="M85.835,450.16 L92.447,450.16 L92.447,454.626 L92.563,454.626 Q93.549,452.538 95.579,451.001 Q97.609,449.464 101.089,449.464 Q103.873,449.464 105.816,450.392 Q107.759,451.32 108.977,452.828 Q110.195,454.336 110.717,456.308 Q111.239,458.28 111.239,460.426 L111.239,478 L104.279,478 L104.279,463.906 Q104.279,462.746 104.163,461.325 Q104.047,459.904 103.554,458.657 Q103.061,457.41 102.017,456.569 Q100.973,455.728 99.175,455.728 Q97.435,455.728 96.246,456.308 Q95.057,456.888 94.274,457.874 Q93.491,458.86 93.143,460.136 Q92.795,461.412 92.795,462.804 L92.795,478 L85.835,478 z" fill="#1B6AC0"/>
    <path d="M115.879,456.076 L115.879,450.16 L121.621,450.16 L121.621,442.098 L128.581,442.098 L128.581,450.16 L136.237,450.16 L136.237,456.076 L128.581,456.076 L128.581,468.256 Q128.581,470.344 129.364,471.562 Q130.147,472.78 132.467,472.78 Q133.395,472.78 134.497,472.577 Q135.599,472.374 136.237,471.91 L136.237,477.768 Q135.135,478.29 133.54,478.493 Q131.945,478.696 130.727,478.696 Q127.943,478.696 126.174,478.087 Q124.405,477.478 123.39,476.231 Q122.375,474.984 121.998,473.128 Q121.621,471.272 121.621,468.836 L121.621,456.076 z" fill="#1B6AC0"/>
    <path d="M147.257,466.516 Q147.605,469.648 149.693,471.388 Q151.781,473.128 154.739,473.128 Q157.349,473.128 159.118,472.055 Q160.887,470.982 162.221,469.358 L167.209,473.128 Q164.773,476.144 161.757,477.42 Q158.741,478.696 155.435,478.696 Q152.303,478.696 149.519,477.652 Q146.735,476.608 144.705,474.694 Q142.675,472.78 141.486,470.083 Q140.297,467.386 140.297,464.08 Q140.297,460.774 141.486,458.077 Q142.675,455.38 144.705,453.466 Q146.735,451.552 149.519,450.508 Q152.303,449.464 155.435,449.464 Q158.335,449.464 160.742,450.479 Q163.149,451.494 164.86,453.408 Q166.571,455.322 167.528,458.135 Q168.485,460.948 168.485,464.602 L168.485,466.516 z M161.525,461.296 Q161.467,458.222 159.611,456.453 Q157.755,454.684 154.449,454.684 Q151.317,454.684 149.49,456.482 Q147.663,458.28 147.257,461.296 z" fill="#1B6AC0"/>
    <path d="M174.981,450.16 L181.593,450.16 L181.593,454.626 L181.709,454.626 Q182.695,452.538 184.725,451.001 Q186.755,449.464 190.235,449.464 Q193.019,449.464 194.962,450.392 Q196.905,451.32 198.123,452.828 Q199.341,454.336 199.863,456.308 Q200.385,458.28 200.385,460.426 L200.385,478 L193.425,478 L193.425,463.906 Q193.425,462.746 193.309,461.325 Q193.193,459.904 192.7,458.657 Q192.207,457.41 191.163,456.569 Q190.119,455.728 188.321,455.728 Q186.581,455.728 185.392,456.308 Q184.203,456.888 183.42,457.874 Q182.637,458.86 182.289,460.136 Q181.941,461.412 181.941,462.804 L181.941,478 L174.981,478 z" fill="#1B6AC0"/>
    <path d="M205.025,456.076 L205.025,450.16 L210.767,450.16 L210.767,442.098 L217.727,442.098 L217.727,450.16 L225.383,450.16 L225.383,456.076 L217.727,456.076 L217.727,468.256 Q217.727,470.344 218.51,471.562 Q219.293,472.78 221.613,472.78 Q222.541,472.78 223.643,472.577 Q224.745,472.374 225.383,471.91 L225.383,477.768 Q224.281,478.29 222.686,478.493 Q221.091,478.696 219.873,478.696 Q217.089,478.696 215.32,478.087 Q213.551,477.478 212.536,476.231 Q211.521,474.984 211.144,473.128 Q210.767,471.272 210.767,468.836 L210.767,456.076 z" fill="#1B6AC0"/>
    <path d="M246.437,457.642 Q246.437,452.712 248.061,448.681 Q249.685,444.65 252.556,441.808 Q255.427,438.966 259.4,437.429 Q263.373,435.892 268.129,435.892 Q272.943,435.834 276.945,437.313 Q280.947,438.792 283.847,441.634 Q286.747,444.476 288.371,448.478 Q289.995,452.48 289.995,457.41 Q289.995,462.224 288.371,466.168 Q286.747,470.112 283.847,472.954 Q280.947,475.796 276.945,477.391 Q272.943,478.986 268.129,479.044 Q263.373,479.044 259.4,477.507 Q255.427,475.97 252.556,473.157 Q249.685,470.344 248.061,466.4 Q246.437,462.456 246.437,457.642 z M254.093,457.178 Q254.093,460.484 255.108,463.268 Q256.123,466.052 257.979,468.082 Q259.835,470.112 262.416,471.272 Q264.997,472.432 268.187,472.432 Q271.377,472.432 273.987,471.272 Q276.597,470.112 278.453,468.082 Q280.309,466.052 281.324,463.268 Q282.339,460.484 282.339,457.178 Q282.339,454.104 281.324,451.436 Q280.309,448.768 278.453,446.767 Q276.597,444.766 273.987,443.635 Q271.377,442.504 268.187,442.504 Q264.997,442.504 262.416,443.635 Q259.835,444.766 257.979,446.767 Q256.123,448.768 255.108,451.436 Q254.093,454.104 254.093,457.178 z" fill="#1B6AC0"/>
    <path d="M296.317,434.152 L303.277,434.152 L303.277,453.698 L303.451,453.698 Q303.973,453.002 304.785,452.277 Q305.597,451.552 306.757,450.914 Q307.917,450.276 309.425,449.87 Q310.933,449.464 312.905,449.464 Q315.863,449.464 318.357,450.595 Q320.851,451.726 322.62,453.698 Q324.389,455.67 325.375,458.338 Q326.361,461.006 326.361,464.08 Q326.361,467.154 325.433,469.822 Q324.505,472.49 322.707,474.462 Q320.909,476.434 318.357,477.565 Q315.805,478.696 312.615,478.696 Q309.657,478.696 307.105,477.536 Q304.553,476.376 303.045,473.824 L302.929,473.824 L302.929,478 L296.317,478 z M319.401,464.08 Q319.401,462.456 318.85,460.948 Q318.299,459.44 317.226,458.28 Q316.153,457.12 314.645,456.424 Q313.137,455.728 311.223,455.728 Q309.309,455.728 307.801,456.424 Q306.293,457.12 305.22,458.28 Q304.147,459.44 303.596,460.948 Q303.045,462.456 303.045,464.08 Q303.045,465.704 303.596,467.212 Q304.147,468.72 305.22,469.88 Q306.293,471.04 307.801,471.736 Q309.309,472.432 311.223,472.432 Q313.137,472.432 314.645,471.736 Q316.153,471.04 317.226,469.88 Q318.299,468.72 318.85,467.212 Q319.401,465.704 319.401,464.08 z" fill="#1B6AC0"/>
    <path d="M347.705,457.874 Q345.675,455.032 342.253,455.032 Q340.861,455.032 339.527,455.728 Q338.193,456.424 338.193,457.99 Q338.193,459.266 339.295,459.846 Q340.397,460.426 342.079,460.832 Q343.761,461.238 345.704,461.673 Q347.647,462.108 349.329,463.007 Q351.011,463.906 352.113,465.472 Q353.215,467.038 353.215,469.764 Q353.215,472.258 352.142,473.969 Q351.069,475.68 349.358,476.724 Q347.647,477.768 345.501,478.232 Q343.355,478.696 341.209,478.696 Q337.961,478.696 335.235,477.768 Q332.509,476.84 330.363,474.404 L335.003,470.054 Q336.337,471.562 337.874,472.519 Q339.411,473.476 341.615,473.476 Q342.369,473.476 343.181,473.302 Q343.993,473.128 344.689,472.722 Q345.385,472.316 345.82,471.707 Q346.255,471.098 346.255,470.286 Q346.255,468.836 345.153,468.14 Q344.051,467.444 342.369,467.009 Q340.687,466.574 338.744,466.197 Q336.801,465.82 335.119,464.979 Q333.437,464.138 332.335,462.63 Q331.233,461.122 331.233,458.454 Q331.233,456.134 332.19,454.423 Q333.147,452.712 334.713,451.61 Q336.279,450.508 338.309,449.986 Q340.339,449.464 342.427,449.464 Q345.211,449.464 347.937,450.421 Q350.663,451.378 352.345,453.698 z" fill="#1B6AC0"/>
    <path d="M364.177,466.516 Q364.525,469.648 366.613,471.388 Q368.701,473.128 371.659,473.128 Q374.269,473.128 376.038,472.055 Q377.807,470.982 379.141,469.358 L384.129,473.128 Q381.693,476.144 378.677,477.42 Q375.661,478.696 372.355,478.696 Q369.223,478.696 366.439,477.652 Q363.655,476.608 361.625,474.694 Q359.595,472.78 358.406,470.083 Q357.217,467.386 357.217,464.08 Q357.217,460.774 358.406,458.077 Q359.595,455.38 361.625,453.466 Q363.655,451.552 366.439,450.508 Q369.223,449.464 372.355,449.464 Q375.255,449.464 377.662,450.479 Q380.069,451.494 381.78,453.408 Q383.491,455.322 384.448,458.135 Q385.405,460.948 385.405,464.602 L385.405,466.516 z M378.445,461.296 Q378.387,458.222 376.531,456.453 Q374.675,454.684 371.369,454.684 Q368.237,454.684 366.41,456.482 Q364.583,458.28 364.177,461.296 z" fill="#1B6AC0"/>
    <path d="M391.901,450.16 L398.861,450.16 L398.861,454.568 L398.977,454.568 Q400.137,452.132 402.283,450.798 Q404.429,449.464 407.213,449.464 Q407.851,449.464 408.46,449.58 Q409.069,449.696 409.707,449.87 L409.707,456.598 Q408.837,456.366 407.996,456.221 Q407.155,456.076 406.343,456.076 Q403.907,456.076 402.428,456.975 Q400.949,457.874 400.166,459.034 Q399.383,460.194 399.122,461.354 Q398.861,462.514 398.861,463.094 L398.861,478 L391.901,478 z" fill="#1B6AC0"/>
    <path d="M410.693,450.16 L418.291,450.16 L425.715,469.648 L425.831,469.648 L433.313,450.16 L440.447,450.16 L429.485,478 L422.061,478 z" fill="#1B6AC0"/>
    <path d="M450.133,466.516 Q450.481,469.648 452.569,471.388 Q454.657,473.128 457.615,473.128 Q460.225,473.128 461.994,472.055 Q463.763,470.982 465.097,469.358 L470.085,473.128 Q467.649,476.144 464.633,477.42 Q461.617,478.696 458.311,478.696 Q455.179,478.696 452.395,477.652 Q449.611,476.608 447.581,474.694 Q445.551,472.78 444.362,470.083 Q443.173,467.386 443.173,464.08 Q443.173,460.774 444.362,458.077 Q445.551,455.38 447.581,453.466 Q449.611,451.552 452.395,450.508 Q455.179,449.464 458.311,449.464 Q461.211,449.464 463.618,450.479 Q466.025,451.494 467.736,453.408 Q469.447,455.322 470.404,458.135 Q471.361,460.948 471.361,464.602 L471.361,466.516 z M464.401,461.296 Q464.343,458.222 462.487,456.453 Q460.631,454.684 457.325,454.684 Q454.193,454.684 452.366,456.482 Q450.539,458.28 450.133,461.296 z" fill="#1B6AC0"/>
    <path d="M477.857,450.16 L484.817,450.16 L484.817,454.568 L484.933,454.568 Q486.093,452.132 488.239,450.798 Q490.385,449.464 493.169,449.464 Q493.807,449.464 494.416,449.58 Q495.025,449.696 495.663,449.87 L495.663,456.598 Q494.793,456.366 493.952,456.221 Q493.111,456.076 492.299,456.076 Q489.863,456.076 488.384,456.975 Q486.905,457.874 486.122,459.034 Q485.339,460.194 485.078,461.354 Q484.817,462.514 484.817,463.094 L484.817,478 L477.857,478 z" fill="#1B6AC0"/>
    <path d="M89.257,371.682 L103.525,371.682 Q106.483,371.682 109.238,372.233 Q111.993,372.784 114.139,374.118 Q116.285,375.452 117.561,377.714 Q118.837,379.976 118.837,383.456 Q118.837,387.922 116.372,390.938 Q113.907,393.954 109.325,394.592 L120.229,412.746 L111.413,412.746 L101.901,395.346 L96.565,395.346 L96.565,412.746 L89.257,412.746 z M102.249,389.082 Q103.815,389.082 105.381,388.937 Q106.947,388.792 108.252,388.241 Q109.557,387.69 110.369,386.559 Q111.181,385.428 111.181,383.398 Q111.181,381.6 110.427,380.498 Q109.673,379.396 108.455,378.845 Q107.237,378.294 105.758,378.12 Q104.279,377.946 102.887,377.946 L96.565,377.946 L96.565,389.082 z" fill="#1B6AC0"/>
    <path d="M142.559,408.918 L142.385,408.918 Q140.877,411.296 138.557,412.369 Q136.237,413.442 133.453,413.442 Q131.539,413.442 129.712,412.92 Q127.885,412.398 126.464,411.354 Q125.043,410.31 124.173,408.744 Q123.303,407.178 123.303,405.09 Q123.303,402.828 124.115,401.233 Q124.927,399.638 126.29,398.565 Q127.653,397.492 129.451,396.854 Q131.249,396.216 133.192,395.897 Q135.135,395.578 137.107,395.491 Q139.079,395.404 140.819,395.404 L142.559,395.404 L142.559,394.65 Q142.559,392.04 140.761,390.735 Q138.963,389.43 136.179,389.43 Q133.975,389.43 132.061,390.213 Q130.147,390.996 128.755,392.33 L125.101,388.676 Q127.421,386.298 130.524,385.254 Q133.627,384.21 136.933,384.21 Q139.891,384.21 141.921,384.877 Q143.951,385.544 145.285,386.588 Q146.619,387.632 147.344,388.995 Q148.069,390.358 148.388,391.75 Q148.707,393.142 148.765,394.447 Q148.823,395.752 148.823,396.738 L148.823,412.746 L142.559,412.746 z M142.153,400.276 L140.703,400.276 Q139.253,400.276 137.455,400.392 Q135.657,400.508 134.062,400.943 Q132.467,401.378 131.365,402.219 Q130.263,403.06 130.263,404.568 Q130.263,405.554 130.698,406.221 Q131.133,406.888 131.829,407.352 Q132.525,407.816 133.395,408.019 Q134.265,408.222 135.135,408.222 Q138.731,408.222 140.442,406.511 Q142.153,404.8 142.153,401.842 z" fill="#1B6AC0"/>
    <path d="M156.305,384.906 L162.917,384.906 L162.917,389.372 L163.033,389.372 Q164.019,387.284 166.049,385.747 Q168.079,384.21 171.559,384.21 Q174.343,384.21 176.286,385.138 Q178.229,386.066 179.447,387.574 Q180.665,389.082 181.187,391.054 Q181.709,393.026 181.709,395.172 L181.709,412.746 L174.749,412.746 L174.749,398.652 Q174.749,397.492 174.633,396.071 Q174.517,394.65 174.024,393.403 Q173.531,392.156 172.487,391.315 Q171.443,390.474 169.645,390.474 Q167.905,390.474 166.716,391.054 Q165.527,391.634 164.744,392.62 Q163.961,393.606 163.613,394.882 Q163.265,396.158 163.265,397.55 L163.265,412.746 L156.305,412.746 z" fill="#1B6AC0"/>
    <path d="M189.597,368.898 L196.557,368.898 L196.557,396.448 L207.287,384.906 L216.219,384.906 L204.271,397.55 L216.973,412.746 L207.751,412.746 L196.673,398.536 L196.557,398.536 L196.557,412.746 L189.597,412.746 z" fill="#1B6AC0"/>
    <path d="M234.663,371.682 L240.985,371.682 L258.675,412.746 L250.323,412.746 L246.495,403.35 L228.689,403.35 L224.977,412.746 L216.799,412.746 z M243.943,397.086 L237.621,380.382 L231.183,397.086 z" fill="#1B6AC0"/>
    <path d="M262.619,384.906 L269.231,384.906 L269.231,389.372 L269.347,389.372 Q270.333,387.284 272.363,385.747 Q274.393,384.21 277.873,384.21 Q280.657,384.21 282.6,385.138 Q284.543,386.066 285.761,387.574 Q286.979,389.082 287.501,391.054 Q288.023,393.026 288.023,395.172 L288.023,412.746 L281.063,412.746 L281.063,398.652 Q281.063,397.492 280.947,396.071 Q280.831,394.65 280.338,393.403 Q279.845,392.156 278.801,391.315 Q277.757,390.474 275.959,390.474 Q274.219,390.474 273.03,391.054 Q271.841,391.634 271.058,392.62 Q270.275,393.606 269.927,394.882 Q269.579,396.158 269.579,397.55 L269.579,412.746 L262.619,412.746 z" fill="#1B6AC0"/>
    <path d="M313.311,408.918 L313.137,408.918 Q311.629,411.296 309.309,412.369 Q306.989,413.442 304.205,413.442 Q302.291,413.442 300.464,412.92 Q298.637,412.398 297.216,411.354 Q295.795,410.31 294.925,408.744 Q294.055,407.178 294.055,405.09 Q294.055,402.828 294.867,401.233 Q295.679,399.638 297.042,398.565 Q298.405,397.492 300.203,396.854 Q302.001,396.216 303.944,395.897 Q305.887,395.578 307.859,395.491 Q309.831,395.404 311.571,395.404 L313.311,395.404 L313.311,394.65 Q313.311,392.04 311.513,390.735 Q309.715,389.43 306.931,389.43 Q304.727,389.43 302.813,390.213 Q300.899,390.996 299.507,392.33 L295.853,388.676 Q298.173,386.298 301.276,385.254 Q304.379,384.21 307.685,384.21 Q310.643,384.21 312.673,384.877 Q314.703,385.544 316.037,386.588 Q317.371,387.632 318.096,388.995 Q318.821,390.358 319.14,391.75 Q319.459,393.142 319.517,394.447 Q319.575,395.752 319.575,396.738 L319.575,412.746 L313.311,412.746 z M312.905,400.276 L311.455,400.276 Q310.005,400.276 308.207,400.392 Q306.409,400.508 304.814,400.943 Q303.219,401.378 302.117,402.219 Q301.015,403.06 301.015,404.568 Q301.015,405.554 301.45,406.221 Q301.885,406.888 302.581,407.352 Q303.277,407.816 304.147,408.019 Q305.017,408.222 305.887,408.222 Q309.483,408.222 311.194,406.511 Q312.905,404.8 312.905,401.842 z" fill="#1B6AC0"/>
    <path d="M327.173,368.898 L334.133,368.898 L334.133,412.746 L327.173,412.746 z" fill="#1B6AC0"/>
    <path d="M338.367,384.906 L346.023,384.906 L353.795,404.22 L353.911,404.22 L360.871,384.906 L368.121,384.906 L354.955,418.72 Q354.201,420.692 353.302,422.171 Q352.403,423.65 351.185,424.665 Q349.967,425.68 348.314,426.173 Q346.661,426.666 344.341,426.666 Q341.615,426.666 339.005,425.97 L339.875,419.706 Q340.687,419.996 341.586,420.199 Q342.485,420.402 343.413,420.402 Q344.689,420.402 345.559,420.17 Q346.429,419.938 347.038,419.445 Q347.647,418.952 348.053,418.169 Q348.459,417.386 348.923,416.284 L350.257,412.978 z" fill="#1B6AC0"/>
    <path d="M387.087,392.62 Q385.057,389.778 381.635,389.778 Q380.243,389.778 378.909,390.474 Q377.575,391.17 377.575,392.736 Q377.575,394.012 378.677,394.592 Q379.779,395.172 381.461,395.578 Q383.143,395.984 385.086,396.419 Q387.029,396.854 388.711,397.753 Q390.393,398.652 391.495,400.218 Q392.597,401.784 392.597,404.51 Q392.597,407.004 391.524,408.715 Q390.451,410.426 388.74,411.47 Q387.029,412.514 384.883,412.978 Q382.737,413.442 380.591,413.442 Q377.343,413.442 374.617,412.514 Q371.891,411.586 369.745,409.15 L374.385,404.8 Q375.719,406.308 377.256,407.265 Q378.793,408.222 380.997,408.222 Q381.751,408.222 382.563,408.048 Q383.375,407.874 384.071,407.468 Q384.767,407.062 385.202,406.453 Q385.637,405.844 385.637,405.032 Q385.637,403.582 384.535,402.886 Q383.433,402.19 381.751,401.755 Q380.069,401.32 378.126,400.943 Q376.183,400.566 374.501,399.725 Q372.819,398.884 371.717,397.376 Q370.615,395.868 370.615,393.2 Q370.615,390.88 371.572,389.169 Q372.529,387.458 374.095,386.356 Q375.661,385.254 377.691,384.732 Q379.721,384.21 381.809,384.21 Q384.593,384.21 387.319,385.167 Q390.045,386.124 391.727,388.444 z" fill="#1B6AC0"/>
    <path d="M394.743,390.822 L394.743,384.906 L400.485,384.906 L400.485,376.844 L407.445,376.844 L407.445,384.906 L415.101,384.906 L415.101,390.822 L407.445,390.822 L407.445,403.002 Q407.445,405.09 408.228,406.308 Q409.011,407.526 411.331,407.526 Q412.259,407.526 413.361,407.323 Q414.463,407.12 415.101,406.656 L415.101,412.514 Q413.999,413.036 412.404,413.239 Q410.809,413.442 409.591,413.442 Q406.807,413.442 405.038,412.833 Q403.269,412.224 402.254,410.977 Q401.239,409.73 400.862,407.874 Q400.485,406.018 400.485,403.582 L400.485,390.822 z" fill="#1B6AC0"/>
  </g>
</svg>
